<?xml version="1.0" encoding="utf-8"?>
<!-- Generator: Adobe Illustrator 17.0.0, SVG Export Plug-In . SVG Version: 6.00 Build 0)  -->
<!DOCTYPE svg PUBLIC "-//W3C//DTD SVG 1.1//EN" "http://www.w3.org/Graphics/SVG/1.1/DTD/svg11.dtd" [
	<!ENTITY ns_flows "http://ns.adobe.com/Flows/1.0/">
	<!ENTITY ns_extend "http://ns.adobe.com/Extensibility/1.0/">
	<!ENTITY ns_ai "http://ns.adobe.com/AdobeIllustrator/10.0/">
	<!ENTITY ns_graphs "http://ns.adobe.com/Graphs/1.0/">
]>
<svg version="1.1" id="图层_1" xmlns:x="&ns_extend;" xmlns:i="&ns_ai;" xmlns:graph="&ns_graphs;"
	 xmlns="http://www.w3.org/2000/svg" xmlns:xlink="http://www.w3.org/1999/xlink" xmlns:a="http://ns.adobe.com/AdobeSVGViewerExtensions/3.0/"
	 x="0px" y="0px" width="87.75px" height="87.75px" viewBox="0 0 87.75 87.75" enable-background="new 0 0 87.75 87.75"
	 xml:space="preserve">
<g>
	<g opacity="0.5">
		<path fill="#FFFFFF" d="M43.833,3.966C66.017,3.966,84,21.949,84,44.133S66.017,84.299,43.833,84.299S3.667,66.316,3.667,44.133
			S21.65,3.966,43.833,3.966 M43.833,0.966c-23.802,0-43.167,19.364-43.167,43.167s19.365,43.167,43.167,43.167S87,67.935,87,44.133
			S67.636,0.966,43.833,0.966L43.833,0.966z"/>
	</g>
	<circle fill="#22AC38" cx="43.833" cy="44.133" r="3.229"/>
	<g>
		<path fill="#EA5514" d="M26.911,35.898h-6.702V19.331h6.446c3.071,0,5.003,1.745,5.003,4.538c0,1.792-1.117,3.071-2.234,3.514
			c1.28,0.512,2.49,1.745,2.49,3.839C31.914,34.27,29.843,35.898,26.911,35.898z M26.446,21.587h-3.723v4.747h3.723
			c1.605,0,2.699-0.837,2.699-2.374C29.145,22.425,28.051,21.587,26.446,21.587z M26.678,28.592h-3.956v5.049h3.956
			c1.746,0,2.723-1.07,2.723-2.536C29.401,29.639,28.424,28.592,26.678,28.592z"/>
		<path fill="#EA5514" d="M37.362,36.038c-1.699,0-2.885-0.465-4.025-1.605l1.675-1.652c0.582,0.582,1.14,1,2.35,1
			c1.862,0,3.002-1.14,3.002-3.304V19.331h2.513v11.332C42.877,34.106,40.41,36.038,37.362,36.038z"/>
		<path fill="#EA5514" d="M51,36.038c-2.839,0-5.096-1.815-5.096-4.817c0-1.978,1.117-3.188,2.28-3.886
			c-1.07-0.651-2.001-1.815-2.001-3.56c0-2.769,2.117-4.584,4.816-4.584s4.841,1.815,4.841,4.584c0,1.745-0.932,2.909-2.002,3.56
			c1.164,0.698,2.28,1.908,2.28,3.886C56.119,34.223,53.839,36.038,51,36.038z M51,28.406c-1.535,0-2.723,1.233-2.723,2.769
			c0,1.536,1.188,2.746,2.723,2.746c1.536,0,2.723-1.21,2.723-2.746C53.723,29.639,52.536,28.406,51,28.406z M51,21.309
			c-1.442,0-2.443,1.093-2.443,2.536c0,1.466,1.001,2.513,2.443,2.513c1.443,0,2.467-1.047,2.467-2.513
			C53.467,22.402,52.443,21.309,51,21.309z"/>
		<path fill="#EA5514" d="M63.405,36.038c-2.629,0-4.77-1.792-4.77-4.747v-7.353c0-2.956,2.141-4.747,4.77-4.747
			c2.63,0,4.794,1.792,4.794,4.747v7.353C68.199,34.246,66.035,36.038,63.405,36.038z M65.825,24.008
			c0-1.606-0.907-2.699-2.42-2.699s-2.396,1.093-2.396,2.699v7.213c0,1.605,0.884,2.699,2.396,2.699s2.42-1.094,2.42-2.699V24.008z"
			/>
	</g>
	<g>
		<path fill="#036EB8" d="M30.239,68.305c-1.14,1.141-2.606,1.769-4.375,1.769s-3.211-0.628-4.352-1.769
			c-1.629-1.629-1.605-3.467-1.605-6.655c0-3.188-0.023-5.025,1.605-6.654c1.14-1.141,2.583-1.769,4.352-1.769
			s3.234,0.628,4.375,1.769c1.629,1.629,1.583,3.467,1.583,6.654C31.821,64.838,31.868,66.676,30.239,68.305z M28.331,56.507
			c-0.582-0.628-1.489-1.023-2.467-1.023s-1.885,0.396-2.467,1.023c-0.814,0.885-0.977,1.815-0.977,5.143
			c0,3.328,0.163,4.259,0.977,5.143c0.582,0.629,1.489,1.024,2.467,1.024s1.885-0.396,2.467-1.024
			c0.814-0.884,0.977-1.814,0.977-5.143C29.308,58.322,29.146,57.392,28.331,56.507z"/>
		<path fill="#036EB8" d="M47.485,69.934l-3.49-6.98h-3.142v6.98H38.34V53.366h6.422c3.142,0,5.143,2.024,5.143,4.84
			c0,2.373-1.442,3.886-3.304,4.397l3.815,7.33H47.485z M44.577,55.623h-3.723v5.189h3.723c1.675,0,2.816-0.954,2.816-2.583
			S46.252,55.623,44.577,55.623z"/>
		<path fill="#036EB8" d="M66.291,68.188c-1.257,1.326-2.815,1.885-4.562,1.885c-1.722,0-3.211-0.628-4.351-1.769
			c-1.629-1.629-1.606-3.467-1.606-6.655c0-3.188-0.022-5.025,1.606-6.654c1.14-1.141,2.583-1.769,4.351-1.769
			c3.515,0,5.562,2.304,6.027,5.143h-2.536c-0.419-1.815-1.629-2.886-3.491-2.886c-0.977,0-1.861,0.396-2.442,1.023
			c-0.814,0.885-1.001,1.815-1.001,5.143c0,3.328,0.187,4.282,1.001,5.166c0.581,0.629,1.466,1.001,2.442,1.001
			c1.094,0,2.048-0.419,2.7-1.164c0.604-0.697,0.837-1.535,0.837-2.605v-0.931h-3.537v-2.142h6.051v2.537
			C67.78,65.652,67.385,67.025,66.291,68.188z"/>
	</g>
</g>
<g>
</g>
<g>
</g>
<g>
</g>
<g>
</g>
<g>
</g>
<g>
</g>
</svg>
